# xmcd
#
# Track frame offsets:
#	150
#	20490
#	40031
#	56197
#	66920
#	83944
#	99157
#	118432
#	133031
#	149457
#	163217
#	177330
#	192920
#	204793
#	219038
#	236491
#	250094
#	265978
#	282523
#	301282
#	317457
#	329630
#	343522
#
# Disc length: 4759 seconds
#
# Revision: 0
# Processed by: cddbd v1.5.2PL0 Copyright (c) Steve Scherf et al.
# Submitted via: SynApp - FreeCDDB Version: 2.4
#
DISCID=58129517
DTITLE=Kris Kristofferson - Christian Joham
DYEAR=2007
DGENRE=Country
TTITLE0=Kris Kristofferson - Sunday Mornin' Comin' down
TTITLE1=Kris Kristofferson - Me and Bobby Mc Gee
TTITLE2=Kris Kristofferson - Casey's Last Ride
TTITLE3=Kris Kristofferson - Help Me Make It through the Night
TTITLE4=Kris Kristofferson - Loving Her Was Easier
TTITLE5=Kris Kristofferson - For the Good Times
TTITLE6=Kris Kristofferson - The Silver Tongued Devil
TTITLE7=Kris Kristofferson - The Taker
TTITLE8=Kris Kristofferson - Shandy (The Perfect Disguise)
TTITLE9=Kris Kristofferson - Highwayman
TTITLE10=Kris Kristofferson - Stranger
TTITLE11=Kris Kristofferson - Why Me
TTITLE12=Kris Kristofferson - Please Don't Tell Me How the Story Ends
TTITLE13=Kris Kristofferson - The Pilgrim  Chapter 33
TTITLE14=Kris Kristofferson - It's never Gonna Be the Same again
TTITLE15=Kris Kristofferson - Kiss the World Goodbye
TTITLE16=Kris Kristofferson - Who's to Bless and Who's to Blame
TTITLE17=Kris Kristofferson - Magdalene
TTITLE18=Kris Kristofferson - Fallen Angel
TTITLE19=Kris Kristofferson - Somebody Nobody Knows
TTITLE20=Kris Kristofferson - Prove It to You One More Time
TTITLE21=Kris Kristofferson - Nobody Loves Anybody Anymore
TTITLE22=Kris Kristofferson - When I Loved Her
EXTD=
EXTT0=
EXTT1=
EXTT2=
EXTT3=
EXTT4=
EXTT5=
EXTT6=
EXTT7=
EXTT8=
EXTT9=
EXTT10=
EXTT11=
EXTT12=
EXTT13=
EXTT14=
EXTT15=
EXTT16=
EXTT17=
EXTT18=
EXTT19=
EXTT20=
EXTT21=
EXTT22=
PLAYORDER=
